<svg width="63" height="19" viewBox="0 0 63 19" fill="none" xmlns="http://www.w3.org/2000/svg">
<path d="M14.6193 0.818181V19H12.4886L2.58097 4.72443H2.40341V19H0.201705V0.818181H2.33239L12.2756 15.1293H12.4531V0.818181H14.6193ZM19.0249 19V0.818181H29.998V2.77131H21.2267V8.91477H29.4298V10.8679H21.2267V17.0469H30.14V19H19.0249ZM35.0317 0.818181L39.7192 8.3821H39.8612L44.5487 0.818181H47.1411L41.4237 9.90909L47.1411 19H44.5487L39.8612 11.5781H39.7192L35.0317 19H32.4394L38.2987 9.90909L32.4394 0.818181H35.0317ZM49.0121 2.77131V0.818181H62.6484V2.77131H56.9311V19H54.7294V2.77131H49.0121Z" fill="black"/>
</svg>
