<svg width="46" height="50" viewBox="0 0 46 50" fill="none" xmlns="http://www.w3.org/2000/svg">
<path d="M38.8515 0H6.85614C3.0696 0 0 3.34707 0 7.47589V42.3634C0 46.4922 3.0696 49.8393 6.85614 49.8393H38.8515C42.638 49.8393 45.7076 46.4922 45.7076 42.3634V7.47589C45.7076 3.34707 42.638 0 38.8515 0Z" fill="#1877F2"/>
<path d="M31.7457 32.123L32.7634 24.9197H26.425V20.2472C26.425 18.2809 27.3088 16.3535 30.1477 16.3535H33.0312V10.221C33.0312 10.221 30.4155 9.73425 27.9159 9.73425C22.6934 9.73425 19.2832 13.1802 19.2832 19.4296V24.9197H13.4805V32.123H19.2832V49.8393H26.425V32.123H31.7457Z" fill="white"/>
</svg>
