<svg width="18" height="18" viewBox="0 0 18 18" fill="none" xmlns="http://www.w3.org/2000/svg">
<path d="M0.837179 8.58223C0.837179 3.85154 4.68872 0 9.41941 0C14.1501 0 18.0016 3.85154 18.0016 8.58223C18.0016 13.3129 14.1501 17.1645 9.41941 17.1645C4.68872 17.1645 0.837179 13.3129 0.837179 8.58223ZM16.7457 8.58223C16.7457 4.53812 13.4552 1.25594 9.41941 1.25594C5.38367 1.25594 2.09312 4.53812 2.09312 8.58223C2.09312 12.6264 5.38367 15.9085 9.41941 15.9085C13.4552 15.9085 16.7457 12.6264 16.7457 8.58223Z" fill="#F0F0F0"/>
<path d="M-2.83718e-05 17.3742C-2.83718e-05 17.2151 0.058583 17.056 0.184177 16.9304L1.85876 15.2558C2.10157 15.013 2.50347 15.013 2.74629 15.2558C2.9891 15.4986 2.9891 15.9005 2.74629 16.1433L1.0717 17.8179C0.828891 18.0607 0.426991 18.0607 0.184177 17.8179C0.058583 17.6923 -2.83718e-05 17.5332 -2.83718e-05 17.3742Z" fill="#F0F0F0"/>
</svg>
