<svg width="50" height="51" viewBox="0 0 50 51" fill="none" xmlns="http://www.w3.org/2000/svg">
<path d="M42.5 0H7.5C3.35786 0 0 3.40133 0 7.59709V43.0502C0 47.2459 3.35786 50.6472 7.5 50.6472H42.5C46.6421 50.6472 50 47.2459 50 43.0502V7.59709C50 3.40133 46.6421 0 42.5 0Z" fill="black"/>
<path d="M42.5 0H7.5C3.35786 0 0 3.40133 0 7.59709V43.0502C0 47.2459 3.35786 50.6472 7.5 50.6472H42.5C46.6421 50.6472 50 47.2459 50 43.0502V7.59709C50 3.40133 46.6421 0 42.5 0Z" fill="url(#paint0_radial_87_92)"/>
<path d="M42.5 0H7.5C3.35786 0 0 3.40133 0 7.59709V43.0502C0 47.2459 3.35786 50.6472 7.5 50.6472H42.5C46.6421 50.6472 50 47.2459 50 43.0502V7.59709C50 3.40133 46.6421 0 42.5 0Z" fill="url(#paint1_linear_87_92)"/>
<path d="M32.1289 10.0897H17.8711C13.5024 10.0897 9.96094 13.6771 9.96094 18.1023V32.5447C9.96094 36.9699 13.5024 40.5572 17.8711 40.5572H32.1289C36.4976 40.5572 40.0391 36.9699 40.0391 32.5447V18.1023C40.0391 13.6771 36.4976 10.0897 32.1289 10.0897Z" stroke="white" stroke-width="5.02015"/>
<path d="M25 32.4456C28.8833 32.4456 32.0312 29.2568 32.0312 25.3233C32.0312 21.3898 28.8833 18.201 25 18.201C21.1167 18.201 17.9688 21.3898 17.9688 25.3233C17.9688 29.2568 21.1167 32.4456 25 32.4456Z" stroke="white" stroke-width="5.02015"/>
<path d="M33.8867 16.9146C34.2103 16.9146 34.4727 16.649 34.4727 16.3213C34.4727 15.9936 34.2103 15.728 33.8867 15.728C33.5631 15.728 33.3008 15.9936 33.3008 16.3213C33.3008 16.649 33.5631 16.9146 33.8867 16.9146Z" stroke="white" stroke-width="5.02015"/>
<defs>
<radialGradient id="paint0_radial_87_92" cx="0" cy="0" r="1" gradientUnits="userSpaceOnUse" gradientTransform="translate(20 50.6472) scale(50 50.6472)">
<stop offset="0.1" stop-color="#FFDD55"/>
<stop offset="0.5" stop-color="#FF543E"/>
<stop offset="1" stop-color="#C837AB"/>
</radialGradient>
<linearGradient id="paint1_linear_87_92" x1="0" y1="0" x2="10.2503" y2="50.5965" gradientUnits="userSpaceOnUse">
<stop offset="0.1" stop-color="#3771C8"/>
<stop offset="0.5" stop-color="#6600FF" stop-opacity="0"/>
</linearGradient>
</defs>
</svg>
