<svg width="21" height="24" viewBox="0 0 21 24" fill="none" xmlns="http://www.w3.org/2000/svg">
<path d="M10.4635 14.4155C8.08693 14.4155 6.14551 12.4852 6.14551 10.0975C6.14551 7.70983 8.08693 5.79073 10.4635 5.79073C12.8401 5.79073 14.7815 7.72099 14.7815 10.1087C14.7815 12.4964 12.8401 14.4155 10.4635 14.4155ZM10.4635 7.46437C9.01306 7.46437 7.81915 8.64707 7.81915 10.1087C7.81915 11.5703 9.0019 12.753 10.4635 12.753C11.9252 12.753 13.1079 11.5703 13.1079 10.1087C13.1079 8.64707 11.914 7.46437 10.4635 7.46437Z" fill="#FF4040"/>
<path d="M10.4621 24C8.81077 24 7.14827 23.3752 5.85399 22.1367C2.5625 18.9679 -1.07488 13.9135 0.297507 7.89958C1.536 2.44351 6.3003 0 10.4621 0H10.4733C14.635 0 19.3993 2.44351 20.6378 7.91074C21.9991 13.9247 18.3617 18.9679 15.0702 22.1367C13.7759 23.3752 12.1134 24 10.4621 24ZM10.4621 1.67364C7.21522 1.67364 3.04228 3.40307 1.93768 8.26778C0.732654 13.523 4.0353 18.053 7.02554 20.9205C8.95582 22.7838 11.9795 22.7838 13.9098 20.9205C16.8889 18.053 20.1915 13.523 19.0088 8.26778C17.8931 3.40307 13.709 1.67364 10.4621 1.67364Z" fill="#FF4040"/>
</svg>
