<svg width="46" height="50" viewBox="0 0 46 50" fill="none" xmlns="http://www.w3.org/2000/svg">
<path d="M38.8515 0H6.85614C3.0696 0 0 3.34707 0 7.47589V42.3634C0 46.4922 3.0696 49.8393 6.85614 49.8393H38.8515C42.638 49.8393 45.7076 46.4922 45.7076 42.3634V7.47589C45.7076 3.34707 42.638 0 38.8515 0Z" fill="#1DA1F2"/>
<path d="M39.0125 14.796C37.9542 15.5614 36.7116 15.9679 35.4416 15.9641C36.7994 15.0919 37.8161 13.7062 38.2984 12.0704C37.1729 13.1079 35.7546 13.6921 34.2811 13.7252C33.3096 12.6402 32.0416 11.9281 30.6674 11.6957C29.2933 11.4632 27.887 11.723 26.6597 12.4359C25.4324 13.1489 24.4503 14.2767 23.8607 15.65C23.2711 17.0233 23.1059 18.5681 23.3898 20.0524C20.8896 19.9085 18.4451 19.1928 16.215 17.9518C13.9849 16.7108 12.0191 14.9723 10.4453 12.8491C9.67513 14.3687 9.44964 16.1458 9.81248 17.8363C10.1753 19.5268 11.1007 21.0102 12.4093 21.9993C11.4217 22.0145 10.4441 21.7813 9.55255 21.3179C9.57656 22.8859 10.0822 24.3999 10.9885 25.6175C11.8948 26.8352 13.1495 27.6862 14.5518 28.0345C13.6183 28.3003 12.642 28.3336 11.6951 28.1319C12.1036 29.521 12.8994 30.7365 13.9715 31.6089C15.0437 32.4814 16.3389 32.9673 17.6764 32.999C14.8515 34.8675 11.6066 35.8447 8.30273 35.8219C11.0698 37.7916 14.2838 38.8854 17.5872 38.9815C20.8905 39.0775 24.1535 38.1721 27.0129 36.366C29.8722 34.5598 32.2159 31.9239 33.7828 28.7515C35.3497 25.5791 36.0785 21.9948 35.888 18.3976C37.066 17.3472 38.1161 16.1368 39.0125 14.796Z" fill="white"/>
</svg>
