<svg width="23" height="24" viewBox="0 0 23 24" fill="none" xmlns="http://www.w3.org/2000/svg">
<path d="M17.3625 23.0429C16.1514 23.0429 14.876 22.7535 13.5578 22.1962C12.2717 21.6496 10.9748 20.8993 9.71016 19.9884C8.4562 19.0666 7.24511 18.0377 6.09832 16.9124C4.96226 15.7656 3.93336 14.5545 3.02237 13.3113C2.10065 12.0252 1.36114 10.739 0.835974 9.49581C0.278658 8.16682 0 6.88071 0 5.66962C0 4.83364 0.150047 4.04054 0.439422 3.30103C0.739515 2.54007 1.22181 1.83271 1.87558 1.22181C2.70084 0.407269 3.64399 0 4.65144 0C5.06943 0 5.49814 0.0964585 5.86253 0.26794C6.28052 0.460857 6.6342 0.750233 6.89143 1.13607L9.37791 4.64073C9.60298 4.95154 9.77446 5.25163 9.89236 5.55172C10.0317 5.87325 10.1067 6.19478 10.1067 6.50559C10.1067 6.91286 9.98882 7.30941 9.76375 7.68453C9.60298 7.97391 9.35648 8.28472 9.04567 8.59553L8.31687 9.35648C8.32759 9.38863 8.3383 9.41007 8.34902 9.4315C8.47763 9.65657 8.73486 10.0424 9.22787 10.6212C9.75303 11.2213 10.246 11.7679 10.7391 12.2717C11.3714 12.8933 11.8966 13.3863 12.3896 13.7936C13.0005 14.308 13.397 14.5652 13.6328 14.6831L13.6114 14.7367L14.3938 13.9651C14.726 13.6328 15.0475 13.3863 15.3583 13.2255C15.9478 12.8611 16.698 12.7968 17.4483 13.1076C17.7269 13.2255 18.027 13.3863 18.3486 13.6114L21.9068 16.1407C22.3034 16.4087 22.5927 16.7516 22.7642 17.1589C22.925 17.5662 23 17.9413 23 18.3164C23 18.8308 22.8821 19.3453 22.657 19.8276C22.432 20.3099 22.1533 20.7279 21.7996 21.1137C21.1887 21.7889 20.5242 22.2712 19.7526 22.582C19.0131 22.8821 18.2092 23.0429 17.3625 23.0429ZM4.65144 1.60764C4.06198 1.60764 3.51538 1.86487 2.99021 2.37931C2.4972 2.84017 2.15424 3.3439 1.93989 3.89049C1.71482 4.44781 1.60764 5.03728 1.60764 5.66962C1.60764 6.66636 1.84343 7.74884 2.315 8.86347C2.7973 9.99954 3.47251 11.1785 4.32992 12.3574C5.18733 13.5363 6.16263 14.6831 7.23439 15.7656C8.30615 16.8267 9.46365 17.8127 10.6533 18.6808C11.8108 19.5275 13.0005 20.2134 14.1794 20.7064C16.0121 21.4888 17.7269 21.671 19.1417 21.0815C19.6883 20.8565 20.1706 20.5135 20.61 20.0205C20.8565 19.7526 21.0494 19.4632 21.2102 19.1202C21.3388 18.8523 21.4031 18.5736 21.4031 18.295C21.4031 18.1235 21.3709 17.952 21.2852 17.7591C21.253 17.6948 21.1887 17.5769 20.9851 17.4376L17.4268 14.9082C17.2125 14.7582 17.0196 14.651 16.8374 14.576C16.6016 14.4795 16.5051 14.383 16.1407 14.6081C15.9264 14.7153 15.7335 14.876 15.5191 15.0904L14.7046 15.8942C14.2866 16.3015 13.6435 16.3979 13.1505 16.2157L12.8611 16.0871C12.4217 15.8514 11.9073 15.487 11.3392 15.0047C10.8248 14.5652 10.2675 14.0508 9.59227 13.3863C9.0671 12.8504 8.54194 12.2824 7.99534 11.65C7.49161 11.0606 7.12721 10.5569 6.90214 10.1389L6.77353 9.81734C6.70923 9.57083 6.68779 9.4315 6.68779 9.28145C6.68779 8.89562 6.82712 8.55266 7.09506 8.28472L7.89888 7.44874C8.11323 7.23439 8.274 7.03076 8.38117 6.84856C8.46692 6.70923 8.49907 6.59133 8.49907 6.48416C8.49907 6.39842 8.46692 6.2698 8.41333 6.14119C8.3383 5.96971 8.22041 5.77679 8.07036 5.57316L5.58388 2.05778C5.4767 1.90774 5.34809 1.80056 5.18733 1.72554C5.01584 1.65051 4.83364 1.60764 4.65144 1.60764ZM13.6114 14.7474L13.4399 15.4762L13.7293 14.726C13.6757 14.7153 13.6328 14.726 13.6114 14.7474Z" fill="#FF4C4C"/>
</svg>
